HIERARCHY
ROOT Hips
{
  OFFSET -182.124 87.4526 -173.596
  CHANNELS 6 Xposition Yposition Zposition Zrotation Xrotation Yrotation
  JOINT ToSpine
  {
    OFFSET -2.69724 7.43032 -0.144315
    CHANNELS 3 Zrotation Xrotation Yrotation
    JOINT Spine
    {
      OFFSET -0.0310711 10.7595 1.96963
      CHANNELS 3 Zrotation Xrotation Yrotation
      JOINT Spine1
      {
        OFFSET 13.1342 3.43533 0.764692
        CHANNELS 3 Zrotation Xrotation Yrotation
        JOINT Neck
        {
          OFFSET 29.8703 7.82586 -0.130764
          CHANNELS 3 Zrotation Xrotation Yrotation
          JOINT Head
          {
            OFFSET 9.52751 0.295786 -0.907742
            CHANNELS 3 Zrotation Xrotation Yrotation
            End Site
            {
              OFFSET 16.4037 0.713936 2.7358
            }
          }
        }
        JOINT LeftShoulder
        {
          OFFSET 27.5574 4.95586 2.47156
          CHANNELS 3 Zrotation Xrotation Yrotation
          JOINT LeftArm
          {
            OFFSET 1.20734 -0.998971 20.1238
            CHANNELS 3 Zrotation Xrotation Yrotation
            JOINT LeftForeArm
            {
              OFFSET 26.8049 -0.0536703 -0.155908
              CHANNELS 3 Zrotation Xrotation Yrotation
              JOINT LeftHand
              {
                OFFSET 26.6817 0 0.320147
                CHANNELS 3 Zrotation Xrotation Yrotation
                End Site
                {
                  OFFSET 18.6119 0 0.382219
                }
              }
            }
          }
        }
        JOINT RightShoulder
        {
          OFFSET 27.5927 4.71444 -2.65209
          CHANNELS 3 Zrotation Xrotation Yrotation
          JOINT RightArm
          {
            OFFSET 2.83739 -1.17114 -18.7564
            CHANNELS 3 Zrotation Xrotation Yrotation
            JOINT RightForeArm
            {
              OFFSET 28.839 -0.0548439 1.22491
              CHANNELS 3 Zrotation Xrotation Yrotation
              JOINT RightHand
              {
                OFFSET 26.5114 0 -0.101894
                CHANNELS 3 Zrotation Xrotation Yrotation
                End Site
                {
                  OFFSET 18.2168 0 0
                }
              }
            }
          }
        }
      }
    }
  }
  JOINT LeftUpLeg
  {
    OFFSET -4.76168 -1.9167 -10.2353
    CHANNELS 3 Zrotation Xrotation Yrotation
    JOINT LeftLeg
    {
      OFFSET 2.55951 -42.0585 -8.02213
      CHANNELS 3 Zrotation Xrotation Yrotation
      JOINT LeftFoot
      {
        OFFSET 3.16357 -42.5282 -3.95426
        CHANNELS 3 Zrotation Xrotation Yrotation
        JOINT LeftToeBase
        {
          OFFSET 0.346054 -6.02161 12.8035
          CHANNELS 3 Zrotation Xrotation Yrotation
          End Site
          {
            OFFSET 0.134235 -1.35082 5.13018
          }
        }
      }
    }
  }
  JOINT RightUpLeg
  {
    OFFSET -4.94151 -1.41743 10.6446
    CHANNELS 3 Zrotation Xrotation Yrotation
    JOINT RightLeg
    {
      OFFSET -2.56294 -42.0364 -7.94377
      CHANNELS 3 Zrotation Xrotation Yrotation
      JOINT RightFoot
      {
        OFFSET -3.0952 -42.555 -4.02241
        CHANNELS 3 Zrotation Xrotation Yrotation
        JOINT RightToeBase
        {
          OFFSET -0.0828122 -6.13587 12.8035
          CHANNELS 3 Zrotation Xrotation Yrotation
          End Site
          {
            OFFSET -0.131328 -1.35082 5.13018
          }
        }
      }
    }
  }
}
MOTION
Frames:	8
Frame Time:	0.0333333
-250.534 89.8013 -236.12 62.9145 -36.0598 -18.3578 -70.1915 0 88.8779 94.6223 68.4014 -13.2695 0.107231 18.1396 0.252518 -153.002 18.8049 166.159 -151.494 57.8761 -177.314 0.39626 -13.4502 -30.3698 -74.6344 46.3203 -74.1634 16.8033 4.08613 -76.1245 0.420957 0.000575449 0.35866 -1.70242 4.97947 48.6776 -66.8297 -40.2271 65.9257 16.7504 -8.66847 63.3402 0.58676 0.000331121 0.0646653 -43.6406 -5.40182 96.5176 -6.88613 59.4199 -12.838 3.17889 -17.3603 -1.40201 7.7865 -16.9754 16.5246 -14.6538 0.776763 85.916 169.277 68.8236 179.729 -11.4191 9.05329 1.81781 2.09817 -15.5978 -7.35569 
-242.308 91.9818 -228.7 63.952 -35.7166 -16.1594 -70.1915 0 88.8779 93.4565 67.2142 -10.5463 0.310807 16.6733 1.04792 -150.316 18.1782 166.014 -148.89 57.1083 -178.748 0.497775 -13.034 -29.6665 -75.1455 47.6949 -75.1285 17.4065 2.87996 -80.2666 0.420957 0.000575449 0.35866 -1.63792 4.74322 49.0407 -67.5491 -40.0528 60.1204 20.7788 -11.3174 62.5682 0.58676 0.000331121 0.0646653 -54.1588 -4.09236 94.3033 -5.17344 52.7251 -13.6024 2.59458 -7.4319 -0.841324 11.6605 -22.934 11.1414 -13.5599 1.55194 85.3134 151.244 83.3695 -159.425 -7.92129 6.6532 1.11567 2.04435 -13.8662 -8.59851 
-234.212 93.1327 -221.064 64.1501 -34.6501 -16.4117 -70.1915 0 88.8779 83.2712 66.4325 -1.98912 2.50247 15.1452 2.75281 -149.749 17.7124 167.258 -149.128 56.542 -179.179 0.597632 -12.6243 -28.7346 -74.58 49.8681 -75.9367 17.6898 1.52074 -84.5852 0.420957 0.000575449 0.35866 -1.60306 4.96788 46.9092 -67.9392 -42.5611 56.2425 19.2201 -11.2541 60.6914 0.58676 0.000331121 0.0646653 -61.5353 -3.08516 93.6463 -4.67043 48.357 -16.403 -0.168503 1.63506 0.0614163 11.8934 -23.9658 4.94305 -15.097 1.08448 86.0981 7.94867 76.3082 -17.3 -18.2695 22.1818 4.27346 10.0407 -47.0704 11.9173 
-226.274 95.4254 -213.77 63.3495 -33.4928 -14.8411 -70.1915 0 88.8779 80.3605 64.7416 2.79749 2.81113 13.5314 3.86504 -149.606 17.2948 167.353 -147.964 55.7917 178.887 0.705795 -12.08 -28.2642 -72.5089 51.2719 -76.3126 17.83 -0.105648 -89.6354 0.420957 0.000575449 0.35866 -1.44474 4.64543 45.9141 -68.372 -43.9178 52.0828 18.5891 -11.3015 59.71 0.58676 0.000331121 0.0646653 -67.3097 -0.335446 91.1428 -3.99111 43.0228 -17.5253 -4.31443 9.09269 1.50829 4.25298 -7.6437 -6.3408 -17.0478 1.75702 83.7301 3.30239 54.8687 -0.883188 -2.76076 10.3152 -0.0388574 2.28783 -17.2363 -16.2652 
-218.369 95.849 -206.101 62.6065 -32.6898 -15.5921 -70.1915 0 88.8779 69.6171 63.2712 11.5017 6.07406 12.5658 5.85672 -151.692 17.4607 167.899 -147.931 55.5766 177.039 0.708591 -12.1134 -27.7684 -71.3424 52.6399 -76.4827 18.9379 -1.83925 -94.6189 0.420957 0.000575449 0.35866 -1.27324 4.4812 43.4698 -69.9633 -45.1793 48.8515 18.3297 -11.2089 59.5388 0.58676 0.000331121 0.0646653 -71.2543 0.803288 91.1053 -3.79926 41.8658 -16.8623 -7.45617 16.5772 3.21576 -2.17468 3.74226 1.96441 -21.7039 1.41936 82.7697 1.69661 29.7645 1.38224 2.20112 17.8378 -1.83296 2.31081 -12.147 -14.8506 
-210.437 95.6039 -199.112 62.3379 -29.8316 -15.9096 -70.1915 0 88.8779 61.2405 60.3033 18.9234 9.76376 11.1794 5.99156 -154.766 17.5439 168.741 -149.599 55.503 176.03 0.643384 -12.5165 -27.5241 -69.4925 52.8148 -77.3743 20.4918 -2.81579 -96.7532 0.420957 0.000575449 0.35866 -1.11053 4.20976 41.6847 -72.1981 -45.3598 46.1124 18.3072 -11.1976 59.5311 0.58676 0.000331121 0.0646653 -72.4243 1.43936 90.5479 -3.34891 44.4984 -9.2698 -7.90073 13.2967 2.86454 -3.65423 6.31795 2.97914 -24.5049 -0.799794 84.6492 3.58623 13.5065 3.9528 6.9197 23.5265 -3.94266 2.56673 -13.0796 -20.3574 
-202.953 94.4545 -192.251 63.9312 -29.3653 -15.8325 -70.1915 0 88.8779 59.9498 59.7168 19.3841 11.0949 10.8608 6.16554 -154.664 17.9316 171.135 -151.076 56.2224 178.288 0.541187 -13.132 -27.3708 -67.9585 53.3898 -77.7812 20.51 -2.24925 -95.2628 0.420957 0.000575449 0.35866 -1.16637 4.39153 41.7688 -74.5314 -43.9097 44.1071 20.8488 -13.2398 58.9046 0.58676 0.000331121 0.0646653 -73.7067 1.98052 91.6823 -3.50698 50.5651 -3.98726 -4.43797 9.91964 1.62893 -1.88879 3.1702 1.89711 -24.6159 -2.08468 84.2479 3.54149 15.4085 -4.83057 6.56538 24.1379 -3.90498 1.85395 -5.6867 -10.3872 
-195.702 91.6616 -185.886 65.825 -32.1306 -16.6473 -70.1915 0 88.8779 69.5983 62.5389 10.8088 6.72665 12.1955 5.61488 -154.162 18.2141 172.471 -151.262 56.4997 178.292 0.457682 -13.533 -27.8472 -66.039 53.6088 -78.4985 17.7495 -0.274855 -90.1619 0.420957 0.000575449 0.35866 -1.17858 4.24324 42.9729 -73.472 -41.5264 47.0719 21.5575 -14.8888 56.8883 0.58676 0.000331121 0.0646653 -73.3848 1.38552 94.6241 -4.73753 61.387 2.71137 -2.36959 8.3442 1.03153 -0.808575 1.23013 1.13089 -23.8314 -2.05306 79.5877 3.49653 29.1938 7.59674 3.18265 17.7175 -2.09889 3.16348 -6.44354 -22.4902 
